<svg width="105" height="142" viewBox="0 0 105 142" fill="none" xmlns="http://www.w3.org/2000/svg">
<path d="M0.8 142V117.6L47.4 79.4C56.6 71.8 62.9333 65.7333 66.4 61.2C69.8667 56.5333 71.6 51.4 71.6 45.8C71.6 40.0667 69.8667 35.6 66.4 32.4C62.9333 29.2 58.4 27.6 52.8 27.6C47.6 27.6 42.8667 29.0667 38.6 32C34.4667 34.8 29.6667 39.6 24.2 46.4L2.6 29C9.93333 19 17.4667 11.6667 25.2 7C33.0667 2.33333 42.9333 -7.62939e-06 54.8 -7.62939e-06C69.3333 -7.62939e-06 81 3.99999 89.8 12C98.6 19.8667 103 30.4 103 43.6C103 51.2 101.533 58.0667 98.6 64.2C95.6667 70.2 91.8667 75.5333 87.2 80.2C82.5333 84.7333 75.5333 90.6 66.2 97.8L43.4 115.4H104.4V142H0.8Z" fill="#5C4EAE" fill-opacity="0.2"/>
</svg>
