<svg width="106" height="143" viewBox="0 0 106 143" fill="none" xmlns="http://www.w3.org/2000/svg">
<path d="M55.2 142.4C32.4 142.4 14.2 134.333 0.600001 118.2L21.8 98C31.8 109.2 43.0667 114.8 55.6 114.8C61.4667 114.8 66.2 113.267 69.8 110.2C73.5333 107 75.4 102.733 75.4 97.4C75.4 91.6667 73 87.2667 68.2 84.2C63.4 81.1333 56.6667 79.6 48 79.6H35.2L30.4 60L63.8 26.4H8.8V-9.53674e-06H103.4V23.2L68 57C93.0667 61.2667 105.6 74.4667 105.6 96.6C105.6 110.067 101 121.067 91.8 129.6C82.7333 138.133 70.5333 142.4 55.2 142.4Z" fill="#5C4EAE" fill-opacity="0.2"/>
</svg>
