<svg width="126" height="126" viewBox="0 0 126 126" fill="none" xmlns="http://www.w3.org/2000/svg">
<path d="M27.5625 20.6719V105.328C27.5625 108.045 29.7675 110.25 32.4844 110.25H93.5156C96.2325 110.25 98.4375 108.045 98.4375 105.328V51.1875H75.7969C72.4029 51.1875 69.148 49.8393 66.7481 47.4394C64.3482 45.0395 63 41.7846 63 38.3906V15.75H32.4844C29.7675 15.75 27.5625 17.955 27.5625 20.6719ZM96.8074 43.3125L70.875 17.3801V38.3906C70.875 41.1075 73.08 43.3125 75.7969 43.3125H96.8074ZM106.312 105.328C106.312 108.722 104.964 111.977 102.564 114.377C100.165 116.777 96.9096 118.125 93.5156 118.125H32.4844C29.0904 118.125 25.8355 116.777 23.4356 114.377C21.0357 111.977 19.6875 108.722 19.6875 105.328V20.6719C19.6875 17.2779 21.0357 14.023 23.4356 11.6231C25.8355 9.22324 29.0904 7.875 32.4844 7.875H67.2053C70.5991 7.8752 73.8539 9.22357 76.2536 11.6235L102.564 37.9339C104.966 40.3358 106.312 43.5881 106.312 46.9823V105.328Z" fill="url(#paint0_linear_1152_1144)"/>
<defs>
<linearGradient id="paint0_linear_1152_1144" x1="27.498" y1="152.048" x2="116.06" y2="146.749" gradientUnits="userSpaceOnUse">
<stop stop-color="#A155D3"/>
<stop offset="1" stop-color="#277FE9"/>
</linearGradient>
</defs>
</svg>
