<svg width="151" height="151" viewBox="0 0 151 151" fill="none" xmlns="http://www.w3.org/2000/svg">
<path d="M31.4583 25.166H113.25C118.256 25.166 123.057 27.1546 126.597 30.6944C130.136 34.2341 132.125 39.0351 132.125 44.041V88.0827C132.125 93.0886 130.136 97.8896 126.597 101.429C123.057 104.969 118.256 106.958 113.25 106.958H84.9374L88.0833 125.833H94.3749V132.124H50.3333V125.833H56.6249L59.7708 106.958H31.4583C26.4523 106.958 21.6514 104.969 18.1116 101.429C14.5719 97.8896 12.5833 93.0886 12.5833 88.0827V44.041C12.5833 39.0351 14.5719 34.2341 18.1116 30.6944C21.6514 27.1546 26.4523 25.166 31.4583 25.166ZM66.0624 106.958L62.9166 125.833H81.7916L78.6458 106.958H66.0624ZM31.4583 31.4577C28.1209 31.4577 24.9203 32.7834 22.5605 35.1433C20.2007 37.5031 18.8749 40.7037 18.8749 44.041V88.0827C18.8749 91.42 20.2007 94.6206 22.5605 96.9804C24.9203 99.3403 28.1209 100.666 31.4583 100.666H113.25C116.587 100.666 119.788 99.3403 122.148 96.9804C124.508 94.6206 125.833 91.42 125.833 88.0827V44.041C125.833 40.7037 124.508 37.5031 122.148 35.1433C119.788 32.7834 116.587 31.4577 113.25 31.4577H31.4583Z" fill="url(#paint0_linear_1152_1146)"/>
<defs>
<linearGradient id="paint0_linear_1152_1146" x1="23.3616" y1="165.035" x2="145.132" y2="154.67" gradientUnits="userSpaceOnUse">
<stop stop-color="#A155D3"/>
<stop offset="1" stop-color="#277FE9"/>
</linearGradient>
</defs>
</svg>
