<svg width="126" height="126" viewBox="0 0 126 126" fill="none" xmlns="http://www.w3.org/2000/svg">
<path fill-rule="evenodd" clip-rule="evenodd" d="M70.4812 31.5002C69.5775 27.0497 67.163 23.0485 63.6468 20.1745C60.1305 17.3005 55.7288 15.7305 51.1875 15.7305C46.6462 15.7305 42.2445 17.3005 38.7282 20.1745C35.212 23.0485 32.7975 27.0497 31.8938 31.5002H15.75V39.3752H31.8938C32.7975 43.8257 35.212 47.827 38.7282 50.7009C42.2445 53.5749 46.6462 55.1449 51.1875 55.1449C55.7288 55.1449 60.1305 53.5749 63.6468 50.7009C67.163 47.827 69.5775 43.8257 70.4812 39.3752H110.25V31.5002H70.4812ZM55.5188 86.6252H15.75V94.5002H55.5188C56.4225 98.9507 58.837 102.952 62.3532 105.826C65.8695 108.7 70.2712 110.27 74.8125 110.27C79.3538 110.27 83.7555 108.7 87.2718 105.826C90.788 102.952 93.2025 98.9507 94.1062 94.5002H110.25V86.6252H94.1062C93.2025 82.1747 90.788 78.1735 87.2718 75.2995C83.7555 72.4255 79.3538 70.8555 74.8125 70.8555C70.2712 70.8555 65.8695 72.4255 62.3532 75.2995C58.837 78.1735 56.4225 82.1747 55.5188 86.6252Z" fill="url(#paint0_linear_1152_1150)"/>
<defs>
<linearGradient id="paint0_linear_1152_1150" x1="24.2705" y1="139.359" x2="120.671" y2="132.02" gradientUnits="userSpaceOnUse">
<stop stop-color="#A155D3"/>
<stop offset="1" stop-color="#277FE9"/>
</linearGradient>
</defs>
</svg>
