<svg width="8" height="11" viewBox="0 0 8 11" fill="none" xmlns="http://www.w3.org/2000/svg">
<path d="M3.00061 11C2.90092 11 2.82116 10.9795 2.76135 10.954C2.56197 10.8772 2.22302 10.6266 2.22302 9.83373V6.53443H1.05665C0.388723 6.53443 0.149467 6.21217 0.0647303 6.02291C-0.0200064 5.82853 -0.094774 5.43466 0.343863 4.91802L4.11714 0.518949C4.62556 -0.0744145 5.03927 -0.0334928 5.23865 0.0432352C5.43803 0.119963 5.77698 0.370608 5.77698 1.16346V4.46277H6.94335C7.61128 4.46277 7.85053 4.78503 7.93527 4.97429C8.02001 5.16867 8.09477 5.56254 7.65614 6.07918L3.88286 10.4782C3.52896 10.8926 3.21992 11 3.00061 11ZM4.9645 0.764479C4.94955 0.78494 4.84487 0.836092 4.68039 1.03047L0.907112 5.42954C0.767546 5.59323 0.747608 5.69554 0.747608 5.716C0.757577 5.72111 0.847298 5.77226 1.05665 5.77226H2.59686C2.80123 5.77226 2.9707 5.94618 2.9707 6.1559V9.83885C2.9707 10.0946 3.01556 10.2071 3.0355 10.2378C3.05045 10.2174 3.15513 10.1662 3.31961 9.97184L7.09289 5.57277C7.23245 5.40908 7.25239 5.30678 7.25239 5.28632C7.24242 5.2812 7.1527 5.23005 6.94335 5.23005H5.40314C5.19877 5.23005 5.0293 5.05613 5.0293 4.84641V1.16346C5.03429 0.907704 4.98444 0.800285 4.9645 0.764479Z" fill="#14E4B1"/>
<path d="M4.9645 0.764479C4.94955 0.78494 4.84487 0.836092 4.68039 1.03047L0.907112 5.42954C0.767546 5.59323 0.747608 5.69554 0.747608 5.716C0.757577 5.72111 0.847298 5.77226 1.05665 5.77226H2.59686C2.80123 5.77226 2.9707 5.94618 2.9707 6.1559V9.83885C2.9707 10.0946 3.01556 10.2071 3.0355 10.2378C3.05045 10.2174 3.15513 10.1662 3.31961 9.97184L7.09289 5.57277C7.23245 5.40908 7.25239 5.30678 7.25239 5.28632C7.24242 5.2812 7.1527 5.23005 6.94335 5.23005H5.40314C5.19877 5.23005 5.0293 5.05613 5.0293 4.84641V1.16346C5.03429 0.907704 4.98444 0.800285 4.9645 0.764479Z" fill="#14E4B1"/>
</svg>
