<svg width="368" height="379" viewBox="0 0 368 379" fill="none" xmlns="http://www.w3.org/2000/svg">
<path d="M161.148 10C161.148 4.47715 156.667 -0.0323312 151.154 0.310149C125.049 1.93213 99.6756 9.88942 77.2577 23.5579C54.8399 37.2263 36.1455 56.1375 22.7474 78.6016C19.9184 83.3448 21.8745 89.3942 26.7841 91.9237L80.6319 119.666C85.5415 122.196 91.5229 120.222 94.6407 115.663C101.063 106.272 109.425 98.3151 119.203 92.3531C128.981 86.3912 139.884 82.6024 151.174 81.194C156.654 80.5103 161.148 76.0971 161.148 70.5742V10Z" fill="#4A3AFF"/>
<path d="M85.5195 51.7529V67.7529H82.1367V54.9639H82.043L78.3789 57.2607V54.2607L82.3398 51.7529H85.5195ZM96.2832 51.7529V67.7529H92.9004V54.9639H92.8066L89.1426 57.2607V54.2607L93.1035 51.7529H96.2832ZM108.844 64.7529V63.9092C108.844 63.2686 108.979 62.68 109.25 62.1436C109.526 61.6019 109.924 61.1696 110.445 60.8467C110.971 60.5186 111.612 60.3545 112.367 60.3545C113.133 60.3545 113.776 60.516 114.297 60.8389C114.823 61.1618 115.219 61.5941 115.484 62.1357C115.755 62.6722 115.891 63.2633 115.891 63.9092V64.7529C115.891 65.3936 115.755 65.9847 115.484 66.5264C115.214 67.0628 114.815 67.4925 114.289 67.8154C113.763 68.1436 113.122 68.3076 112.367 68.3076C111.602 68.3076 110.958 68.1436 110.438 67.8154C109.917 67.4925 109.521 67.0628 109.25 66.5264C108.979 65.9847 108.844 65.3936 108.844 64.7529ZM111.117 63.9092V64.7529C111.117 65.1227 111.206 65.4717 111.383 65.7998C111.565 66.1279 111.893 66.292 112.367 66.292C112.841 66.292 113.164 66.1305 113.336 65.8076C113.513 65.4847 113.602 65.1331 113.602 64.7529V63.9092C113.602 63.529 113.518 63.1748 113.352 62.8467C113.185 62.5186 112.857 62.3545 112.367 62.3545C111.898 62.3545 111.573 62.5186 111.391 62.8467C111.208 63.1748 111.117 63.529 111.117 63.9092ZM100.633 55.5967V54.7529C100.633 54.1071 100.771 53.516 101.047 52.9795C101.323 52.4378 101.721 52.0055 102.242 51.6826C102.768 51.3597 103.404 51.1982 104.148 51.1982C104.919 51.1982 105.565 51.3597 106.086 51.6826C106.607 52.0055 107.003 52.4378 107.273 52.9795C107.544 53.516 107.68 54.1071 107.68 54.7529V55.5967C107.68 56.2425 107.542 56.8337 107.266 57.3701C106.995 57.9066 106.596 58.3363 106.07 58.6592C105.549 58.9769 104.909 59.1357 104.148 59.1357C103.388 59.1357 102.745 58.9743 102.219 58.6514C101.698 58.3232 101.302 57.8936 101.031 57.3623C100.766 56.8258 100.633 56.2373 100.633 55.5967ZM102.922 54.7529V55.5967C102.922 55.9769 103.01 56.3284 103.188 56.6514C103.37 56.9743 103.69 57.1357 104.148 57.1357C104.628 57.1357 104.953 56.9743 105.125 56.6514C105.302 56.3284 105.391 55.9769 105.391 55.5967V54.7529C105.391 54.3727 105.307 54.0186 105.141 53.6904C104.974 53.3623 104.643 53.1982 104.148 53.1982C103.685 53.1982 103.365 53.3649 103.188 53.6982C103.01 54.0316 102.922 54.3831 102.922 54.7529ZM101.664 67.7529L112.664 51.7529H114.711L103.711 67.7529H101.664Z" fill="white"/>
<path d="M355.65 201.031C361.173 201.031 365.68 196.55 365.369 191.036C364.247 171.1 359.774 151.471 352.114 132.98C343.178 111.405 330.079 91.802 313.567 75.2894C297.054 58.7768 277.451 45.6783 255.876 36.7417C237.385 29.0824 217.756 24.6089 197.82 23.4867C192.306 23.1763 187.825 27.6827 187.825 33.2056V82.5683C187.825 88.0911 192.312 92.5205 197.811 93.0289C208.631 94.0294 219.258 96.6518 229.332 100.824C242.491 106.275 254.448 114.265 264.52 124.336C274.591 134.408 282.581 146.365 288.031 159.524C292.204 169.598 294.827 180.225 295.827 191.045C296.335 196.544 300.765 201.031 306.288 201.031H355.65Z" fill="#962DFF"/>
<path d="M274.594 113.051V110.613L280.289 105.34C280.773 104.871 281.18 104.449 281.508 104.074C281.841 103.699 282.094 103.332 282.266 102.973C282.438 102.608 282.523 102.215 282.523 101.793C282.523 101.324 282.417 100.921 282.203 100.582C281.99 100.238 281.698 99.9753 281.328 99.793C280.958 99.6055 280.539 99.5117 280.07 99.5117C279.581 99.5117 279.154 99.6107 278.789 99.8086C278.424 100.007 278.143 100.29 277.945 100.66C277.747 101.03 277.648 101.47 277.648 101.98H274.438C274.438 100.934 274.674 100.025 275.148 99.2539C275.622 98.4831 276.286 97.8867 277.141 97.4648C277.995 97.043 278.979 96.832 280.094 96.832C281.24 96.832 282.237 97.0352 283.086 97.4414C283.94 97.8424 284.604 98.3997 285.078 99.1133C285.552 99.8268 285.789 100.645 285.789 101.566C285.789 102.171 285.669 102.767 285.43 103.355C285.195 103.944 284.776 104.598 284.172 105.316C283.568 106.03 282.716 106.887 281.617 107.887L279.281 110.176V110.285H286V113.051H274.594ZM287.865 110.238V107.574L294.545 97.0508H296.842V100.738H295.482L291.271 107.402V107.527H300.764V110.238H287.865ZM295.545 113.051V109.426L295.607 108.246V97.0508H298.779V113.051H295.545ZM311.775 110.051V109.207C311.775 108.566 311.911 107.978 312.182 107.441C312.458 106.9 312.856 106.467 313.377 106.145C313.903 105.816 314.544 105.652 315.299 105.652C316.064 105.652 316.708 105.814 317.229 106.137C317.755 106.46 318.15 106.892 318.416 107.434C318.687 107.97 318.822 108.561 318.822 109.207V110.051C318.822 110.691 318.687 111.283 318.416 111.824C318.145 112.361 317.747 112.79 317.221 113.113C316.695 113.441 316.054 113.605 315.299 113.605C314.533 113.605 313.89 113.441 313.369 113.113C312.848 112.79 312.452 112.361 312.182 111.824C311.911 111.283 311.775 110.691 311.775 110.051ZM314.049 109.207V110.051C314.049 110.421 314.137 110.77 314.314 111.098C314.497 111.426 314.825 111.59 315.299 111.59C315.773 111.59 316.096 111.428 316.268 111.105C316.445 110.783 316.533 110.431 316.533 110.051V109.207C316.533 108.827 316.45 108.473 316.283 108.145C316.117 107.816 315.788 107.652 315.299 107.652C314.83 107.652 314.505 107.816 314.322 108.145C314.14 108.473 314.049 108.827 314.049 109.207ZM303.564 100.895V100.051C303.564 99.4049 303.702 98.8138 303.979 98.2773C304.255 97.7357 304.653 97.3034 305.174 96.9805C305.7 96.6576 306.335 96.4961 307.08 96.4961C307.851 96.4961 308.497 96.6576 309.018 96.9805C309.538 97.3034 309.934 97.7357 310.205 98.2773C310.476 98.8138 310.611 99.4049 310.611 100.051V100.895C310.611 101.54 310.473 102.132 310.197 102.668C309.926 103.204 309.528 103.634 309.002 103.957C308.481 104.275 307.84 104.434 307.08 104.434C306.32 104.434 305.676 104.272 305.15 103.949C304.63 103.621 304.234 103.191 303.963 102.66C303.697 102.124 303.564 101.535 303.564 100.895ZM305.854 100.051V100.895C305.854 101.275 305.942 101.626 306.119 101.949C306.301 102.272 306.622 102.434 307.08 102.434C307.559 102.434 307.885 102.272 308.057 101.949C308.234 101.626 308.322 101.275 308.322 100.895V100.051C308.322 99.6706 308.239 99.3164 308.072 98.9883C307.906 98.6602 307.575 98.4961 307.08 98.4961C306.617 98.4961 306.296 98.6628 306.119 98.9961C305.942 99.3294 305.854 99.681 305.854 100.051ZM304.596 113.051L315.596 97.0508H317.643L306.643 113.051H304.596Z" fill="white"/>
<path d="M187.825 368.856C187.825 374.379 192.307 378.885 197.821 378.575C241.34 376.127 282.582 357.757 313.567 326.772C344.552 295.787 362.921 254.545 365.369 211.027C365.68 205.513 361.173 201.031 355.65 201.031H306.288C300.765 201.031 296.336 205.518 295.827 211.017C293.507 236.12 282.493 259.752 264.52 277.725C246.546 295.699 222.915 306.712 197.812 309.033C192.312 309.541 187.825 313.97 187.825 319.493V368.856Z" fill="#E0C6FD"/>
<path d="M266.921 308.892V306.454L272.616 301.181C273.101 300.712 273.507 300.29 273.835 299.915C274.168 299.54 274.421 299.173 274.593 298.813C274.765 298.449 274.851 298.056 274.851 297.634C274.851 297.165 274.744 296.761 274.53 296.423C274.317 296.079 274.025 295.816 273.655 295.634C273.285 295.446 272.866 295.353 272.397 295.353C271.908 295.353 271.481 295.451 271.116 295.649C270.752 295.847 270.47 296.131 270.272 296.501C270.075 296.871 269.976 297.311 269.976 297.821H266.765C266.765 296.774 267.002 295.866 267.476 295.095C267.95 294.324 268.614 293.728 269.468 293.306C270.322 292.884 271.306 292.673 272.421 292.673C273.567 292.673 274.564 292.876 275.413 293.282C276.267 293.683 276.931 294.241 277.405 294.954C277.879 295.668 278.116 296.485 278.116 297.407C278.116 298.011 277.996 298.608 277.757 299.196C277.522 299.785 277.103 300.438 276.499 301.157C275.895 301.871 275.043 302.728 273.944 303.728L271.608 306.017V306.126H278.327V308.892H266.921ZM286.919 309.11C286.096 309.105 285.302 308.967 284.536 308.696C283.776 308.425 283.093 307.985 282.489 307.376C281.885 306.767 281.406 305.959 281.052 304.954C280.703 303.949 280.528 302.715 280.528 301.251C280.534 299.907 280.687 298.707 280.989 297.649C281.297 296.587 281.734 295.686 282.302 294.946C282.875 294.207 283.56 293.644 284.356 293.259C285.153 292.868 286.047 292.673 287.036 292.673C288.104 292.673 289.047 292.881 289.864 293.298C290.682 293.709 291.338 294.269 291.833 294.978C292.333 295.686 292.635 296.48 292.739 297.36H289.403C289.273 296.803 289 296.366 288.583 296.048C288.166 295.73 287.651 295.571 287.036 295.571C285.994 295.571 285.203 296.024 284.661 296.931C284.125 297.837 283.851 299.069 283.841 300.626H283.95C284.19 300.152 284.513 299.748 284.919 299.415C285.33 299.076 285.797 298.819 286.317 298.642C286.843 298.459 287.398 298.368 287.981 298.368C288.929 298.368 289.773 298.592 290.513 299.04C291.252 299.483 291.836 300.092 292.263 300.868C292.69 301.644 292.903 302.532 292.903 303.532C292.903 304.616 292.651 305.579 292.146 306.423C291.646 307.267 290.945 307.928 290.044 308.407C289.148 308.881 288.106 309.116 286.919 309.11ZM286.903 306.454C287.424 306.454 287.89 306.329 288.302 306.079C288.713 305.829 289.036 305.491 289.271 305.063C289.505 304.636 289.622 304.157 289.622 303.626C289.622 303.095 289.505 302.618 289.271 302.196C289.041 301.774 288.724 301.438 288.317 301.188C287.911 300.938 287.448 300.813 286.927 300.813C286.536 300.813 286.174 300.886 285.841 301.032C285.513 301.178 285.224 301.381 284.974 301.642C284.729 301.902 284.536 302.204 284.396 302.548C284.255 302.886 284.185 303.248 284.185 303.634C284.185 304.149 284.302 304.621 284.536 305.048C284.776 305.475 285.099 305.816 285.505 306.071C285.916 306.326 286.382 306.454 286.903 306.454ZM304.06 305.892V305.048C304.06 304.407 304.195 303.819 304.466 303.282C304.742 302.741 305.14 302.308 305.661 301.985C306.187 301.657 306.828 301.493 307.583 301.493C308.349 301.493 308.992 301.655 309.513 301.978C310.039 302.3 310.435 302.733 310.7 303.274C310.971 303.811 311.106 304.402 311.106 305.048V305.892C311.106 306.532 310.971 307.123 310.7 307.665C310.429 308.201 310.031 308.631 309.505 308.954C308.979 309.282 308.338 309.446 307.583 309.446C306.817 309.446 306.174 309.282 305.653 308.954C305.132 308.631 304.737 308.201 304.466 307.665C304.195 307.123 304.06 306.532 304.06 305.892ZM306.333 305.048V305.892C306.333 306.261 306.422 306.61 306.599 306.938C306.781 307.267 307.109 307.431 307.583 307.431C308.057 307.431 308.38 307.269 308.552 306.946C308.729 306.623 308.817 306.272 308.817 305.892V305.048C308.817 304.668 308.734 304.313 308.567 303.985C308.401 303.657 308.073 303.493 307.583 303.493C307.114 303.493 306.789 303.657 306.606 303.985C306.424 304.313 306.333 304.668 306.333 305.048ZM295.849 296.735V295.892C295.849 295.246 295.987 294.655 296.263 294.118C296.539 293.576 296.937 293.144 297.458 292.821C297.984 292.498 298.619 292.337 299.364 292.337C300.135 292.337 300.781 292.498 301.302 292.821C301.823 293.144 302.218 293.576 302.489 294.118C302.76 294.655 302.896 295.246 302.896 295.892V296.735C302.896 297.381 302.757 297.972 302.481 298.509C302.211 299.045 301.812 299.475 301.286 299.798C300.765 300.116 300.125 300.274 299.364 300.274C298.604 300.274 297.961 300.113 297.435 299.79C296.914 299.462 296.518 299.032 296.247 298.501C295.981 297.965 295.849 297.376 295.849 296.735ZM298.138 295.892V296.735C298.138 297.116 298.226 297.467 298.403 297.79C298.586 298.113 298.906 298.274 299.364 298.274C299.843 298.274 300.169 298.113 300.341 297.79C300.518 297.467 300.606 297.116 300.606 296.735V295.892C300.606 295.511 300.523 295.157 300.356 294.829C300.19 294.501 299.859 294.337 299.364 294.337C298.901 294.337 298.58 294.504 298.403 294.837C298.226 295.17 298.138 295.522 298.138 295.892ZM296.88 308.892L307.88 292.892H309.927L298.927 308.892H296.88Z" fill="white"/>
<path d="M37.6886 129.117C32.6985 126.75 26.7066 128.868 24.6242 133.983C14.649 158.487 10.251 184.949 11.8052 211.444C13.5548 241.272 22.7921 270.178 38.664 295.492C54.5359 320.807 76.5306 341.715 102.617 356.284C125.788 369.225 151.524 376.794 177.925 378.49C183.437 378.844 187.953 374.373 187.997 368.851L188.388 319.49C188.431 313.967 183.98 309.502 178.485 308.95C163.747 307.47 149.432 302.982 136.438 295.726C120.527 286.839 107.112 274.087 97.4311 258.647C87.7502 243.206 82.116 225.575 81.0488 207.382C80.1774 192.525 82.3744 177.685 87.4623 163.774C89.3594 158.587 87.2798 152.635 82.2897 150.269L37.6886 129.117Z" fill="#C6D2FD"/>
<path d="M54.9727 287.11C53.806 287.11 52.7669 286.91 51.8555 286.509C50.9492 286.103 50.2331 285.545 49.707 284.837C49.1862 284.123 48.918 283.3 48.9023 282.368H52.3086C52.3294 282.759 52.457 283.103 52.6914 283.399C52.931 283.691 53.2487 283.918 53.6445 284.079C54.0404 284.241 54.4857 284.321 54.9805 284.321C55.4961 284.321 55.9518 284.23 56.3477 284.048C56.7435 283.866 57.0534 283.613 57.2773 283.29C57.5013 282.967 57.6133 282.595 57.6133 282.173C57.6133 281.746 57.4935 281.368 57.2539 281.04C57.0195 280.707 56.681 280.446 56.2383 280.259C55.8008 280.071 55.2799 279.978 54.6758 279.978H53.1836V277.493H54.6758C55.1862 277.493 55.6367 277.405 56.0273 277.228C56.4232 277.05 56.7305 276.806 56.9492 276.493C57.168 276.175 57.2773 275.806 57.2773 275.384C57.2773 274.983 57.181 274.631 56.9883 274.329C56.8008 274.022 56.5352 273.782 56.1914 273.61C55.8529 273.438 55.457 273.353 55.0039 273.353C54.5456 273.353 54.1263 273.436 53.7461 273.603C53.3659 273.764 53.0612 273.996 52.832 274.298C52.6029 274.6 52.4805 274.954 52.4648 275.36H49.2227C49.2383 274.438 49.5013 273.626 50.0117 272.923C50.5221 272.22 51.2096 271.67 52.0742 271.274C52.944 270.873 53.9258 270.673 55.0195 270.673C56.1237 270.673 57.0898 270.873 57.918 271.274C58.7461 271.675 59.3893 272.217 59.8477 272.899C60.3112 273.576 60.5404 274.337 60.5352 275.181C60.5404 276.076 60.2617 276.824 59.6992 277.423C59.1419 278.022 58.4154 278.402 57.5195 278.563V278.688C58.6966 278.84 59.5924 279.248 60.207 279.915C60.8268 280.576 61.1341 281.405 61.1289 282.399C61.1341 283.311 60.8711 284.121 60.3398 284.829C59.8138 285.537 59.0872 286.095 58.1602 286.501C57.2331 286.907 56.1706 287.11 54.9727 287.11ZM69.3496 270.673C70.1725 270.673 70.9642 270.811 71.7246 271.087C72.4902 271.363 73.1725 271.803 73.7715 272.407C74.3757 273.011 74.8522 273.813 75.2012 274.813C75.5553 275.808 75.735 277.03 75.7402 278.478C75.7402 279.837 75.5866 281.05 75.2793 282.118C74.9772 283.181 74.5423 284.084 73.9746 284.829C73.4069 285.574 72.722 286.142 71.9199 286.532C71.1178 286.918 70.222 287.11 69.2324 287.11C68.1647 287.11 67.222 286.905 66.4043 286.493C65.5866 286.076 64.9277 285.511 64.4277 284.798C63.9329 284.079 63.6335 283.272 63.5293 282.376H66.8652C66.9954 282.959 67.2689 283.412 67.6855 283.735C68.1022 284.053 68.6178 284.212 69.2324 284.212C70.2741 284.212 71.0658 283.759 71.6074 282.853C72.1491 281.941 72.4225 280.694 72.4277 279.11H72.3184C72.0788 279.579 71.7559 279.983 71.3496 280.321C70.9434 280.655 70.4772 280.912 69.9512 281.095C69.4303 281.277 68.8757 281.368 68.2871 281.368C67.3444 281.368 66.5033 281.147 65.7637 280.704C65.0241 280.261 64.4408 279.652 64.0137 278.876C63.5866 278.1 63.373 277.215 63.373 276.22C63.3678 275.147 63.6152 274.191 64.1152 273.353C64.6152 272.514 65.3132 271.858 66.209 271.384C67.11 270.905 68.1569 270.668 69.3496 270.673ZM69.373 273.329C68.847 273.329 68.3783 273.454 67.9668 273.704C67.5605 273.954 67.2376 274.29 66.998 274.712C66.7637 275.134 66.6491 275.605 66.6543 276.126C66.6543 276.652 66.7689 277.126 66.998 277.548C67.2324 277.965 67.5501 278.298 67.9512 278.548C68.3574 278.793 68.821 278.915 69.3418 278.915C69.7324 278.915 70.0944 278.842 70.4277 278.696C70.7611 278.55 71.0501 278.35 71.2949 278.095C71.5449 277.834 71.7402 277.535 71.8809 277.196C72.0215 276.858 72.0918 276.498 72.0918 276.118C72.0866 275.613 71.9668 275.149 71.7324 274.728C71.498 274.306 71.1751 273.967 70.7637 273.712C70.3522 273.457 69.8887 273.329 69.373 273.329ZM86.8418 283.892V283.048C86.8418 282.407 86.9772 281.819 87.248 281.282C87.5241 280.741 87.9225 280.308 88.4434 279.985C88.9694 279.657 89.61 279.493 90.3652 279.493C91.1309 279.493 91.7741 279.655 92.2949 279.978C92.821 280.3 93.2168 280.733 93.4824 281.274C93.7533 281.811 93.8887 282.402 93.8887 283.048V283.892C93.8887 284.532 93.7533 285.123 93.4824 285.665C93.2116 286.201 92.8132 286.631 92.2871 286.954C91.7611 287.282 91.1204 287.446 90.3652 287.446C89.5996 287.446 88.9564 287.282 88.4355 286.954C87.9147 286.631 87.5189 286.201 87.248 285.665C86.9772 285.123 86.8418 284.532 86.8418 283.892ZM89.1152 283.048V283.892C89.1152 284.261 89.2038 284.61 89.3809 284.938C89.5632 285.267 89.8913 285.431 90.3652 285.431C90.8392 285.431 91.1621 285.269 91.334 284.946C91.5111 284.623 91.5996 284.272 91.5996 283.892V283.048C91.5996 282.668 91.5163 282.313 91.3496 281.985C91.1829 281.657 90.8548 281.493 90.3652 281.493C89.8965 281.493 89.571 281.657 89.3887 281.985C89.2064 282.313 89.1152 282.668 89.1152 283.048ZM78.6309 274.735V273.892C78.6309 273.246 78.7689 272.655 79.0449 272.118C79.321 271.576 79.7194 271.144 80.2402 270.821C80.7663 270.498 81.4017 270.337 82.1465 270.337C82.9173 270.337 83.5632 270.498 84.084 270.821C84.6048 271.144 85.0007 271.576 85.2715 272.118C85.5423 272.655 85.6777 273.246 85.6777 273.892V274.735C85.6777 275.381 85.5397 275.972 85.2637 276.509C84.9928 277.045 84.5944 277.475 84.0684 277.798C83.5475 278.116 82.9069 278.274 82.1465 278.274C81.3861 278.274 80.7428 278.113 80.2168 277.79C79.696 277.462 79.3001 277.032 79.0293 276.501C78.7637 275.965 78.6309 275.376 78.6309 274.735ZM80.9199 273.892V274.735C80.9199 275.116 81.0085 275.467 81.1855 275.79C81.3678 276.113 81.6882 276.274 82.1465 276.274C82.6257 276.274 82.9512 276.113 83.123 275.79C83.3001 275.467 83.3887 275.116 83.3887 274.735V273.892C83.3887 273.511 83.3053 273.157 83.1387 272.829C82.972 272.501 82.6413 272.337 82.1465 272.337C81.6829 272.337 81.3626 272.504 81.1855 272.837C81.0085 273.17 80.9199 273.522 80.9199 273.892ZM79.6621 286.892L90.6621 270.892H92.709L81.709 286.892H79.6621Z" fill="white"/>
</svg>
