<svg width="48" height="48" viewBox="0 0 48 48" fill="none" xmlns="http://www.w3.org/2000/svg">
<path fill-rule="evenodd" clip-rule="evenodd" d="M43.3921 15.4499C43.8313 15.9159 44.1744 16.4639 44.4017 17.0625C44.6291 17.6611 44.7363 18.2987 44.7172 18.9388C44.6981 19.5788 44.5531 20.2088 44.2905 20.7929C44.0279 21.3769 43.6528 21.9034 43.1866 22.3424L20.9101 43.3349C19.9792 44.212 18.741 44.6881 17.4623 44.6606C16.1836 44.6331 14.9669 44.1042 14.0746 43.1879L4.67861 33.5354C3.77674 32.6089 3.27988 31.362 3.29732 30.0692C3.31476 28.7763 3.84508 27.5433 4.77161 26.6414C5.69815 25.7396 6.945 25.2427 8.23787 25.2601C9.53075 25.2776 10.7637 25.8079 11.6656 26.7344L17.7151 32.9489L36.5026 15.2459C37.4435 14.3592 38.6981 13.8826 39.9904 13.9208C41.2827 13.9591 42.5068 14.5091 43.3936 15.4499" fill="#785DC8"/>
<path fill-rule="evenodd" clip-rule="evenodd" d="M43.3921 15.4499C43.8313 15.9159 44.1744 16.4639 44.4017 17.0625C44.6291 17.6611 44.7363 18.2987 44.7172 18.9388C44.6981 19.5788 44.5531 20.2088 44.2905 20.7929C44.0279 21.3769 43.6528 21.9034 43.1866 22.3424L20.9101 43.3349C19.9792 44.212 18.741 44.6881 17.4623 44.6606C16.1836 44.6331 14.9669 44.1042 14.0746 43.1879L4.67861 33.5354C3.77674 32.6089 3.27988 31.362 3.29732 30.0692C3.31476 28.7763 3.84508 27.5433 4.77161 26.6414C5.69815 25.7396 6.945 25.2427 8.23787 25.2601C9.53075 25.2776 10.7637 25.8079 11.6656 26.7344L17.7151 32.9489L36.5026 15.2459C37.4435 14.3592 38.6981 13.8826 39.9904 13.9208C41.2827 13.9591 42.5068 14.5091 43.3936 15.4499" fill="url(#paint0_linear_1197_237)"/>
<path fill-rule="evenodd" clip-rule="evenodd" d="M43.3921 15.4499C43.8313 15.9159 44.1744 16.4639 44.4017 17.0625C44.6291 17.6611 44.7363 18.2987 44.7172 18.9388C44.6981 19.5788 44.5531 20.2088 44.2905 20.7929C44.0279 21.3769 43.6528 21.9034 43.1866 22.3424L20.9101 43.3349C19.9792 44.212 18.741 44.6881 17.4623 44.6606C16.1836 44.6331 14.9669 44.1042 14.0746 43.1879L4.67861 33.5354C3.77674 32.6089 3.27988 31.362 3.29732 30.0692C3.31476 28.7763 3.84508 27.5433 4.77161 26.6414C5.69815 25.7396 6.945 25.2427 8.23787 25.2601C9.53075 25.2776 10.7637 25.8079 11.6656 26.7344L17.7151 32.9489L36.5026 15.2459C37.4435 14.3592 38.6981 13.8826 39.9904 13.9208C41.2827 13.9591 42.5068 14.5091 43.3936 15.4499" fill="url(#paint1_radial_1197_237)"/>
<path fill-rule="evenodd" clip-rule="evenodd" d="M43.3921 15.4499C43.8313 15.9159 44.1744 16.4639 44.4017 17.0625C44.6291 17.6611 44.7363 18.2987 44.7172 18.9388C44.6981 19.5788 44.5531 20.2088 44.2905 20.7929C44.0279 21.3769 43.6528 21.9034 43.1866 22.3424L20.9101 43.3349C19.9792 44.212 18.741 44.6881 17.4623 44.6606C16.1836 44.6331 14.9669 44.1042 14.0746 43.1879L4.67861 33.5354C3.77674 32.6089 3.27988 31.362 3.29732 30.0692C3.31476 28.7763 3.84508 27.5433 4.77161 26.6414C5.69815 25.7396 6.945 25.2427 8.23787 25.2601C9.53075 25.2776 10.7637 25.8079 11.6656 26.7344L17.7151 32.9489L36.5026 15.2459C37.4435 14.3592 38.6981 13.8826 39.9904 13.9208C41.2827 13.9591 42.5068 14.5091 43.3936 15.4499" fill="url(#paint2_radial_1197_237)" fill-opacity="0.8"/>
<path fill-rule="evenodd" clip-rule="evenodd" d="M17.6565 44.6609V32.8904L17.7135 32.9504L36.501 15.2459C37.4463 14.3851 38.692 13.93 39.9696 13.9789C41.2472 14.0278 42.4545 14.5766 43.3313 15.5071C44.2082 16.4376 44.6843 17.6754 44.6572 18.9537C44.6301 20.2319 44.102 21.4484 43.1865 22.3409L20.91 43.3349C20.0292 44.1668 18.8694 44.6397 17.658 44.6609" fill="url(#paint3_linear_1197_237)"/>
<path fill-rule="evenodd" clip-rule="evenodd" d="M17.6565 44.6609V32.8904L17.7135 32.9504L36.501 15.2459C37.4463 14.3851 38.692 13.93 39.9696 13.9789C41.2472 14.0278 42.4545 14.5766 43.3313 15.5071C44.2082 16.4376 44.6843 17.6754 44.6572 18.9537C44.6301 20.2319 44.102 21.4484 43.1865 22.3409L20.91 43.3349C20.0292 44.1668 18.8694 44.6397 17.658 44.6609" fill="url(#paint4_radial_1197_237)"/>
<path fill-rule="evenodd" clip-rule="evenodd" d="M17.6565 44.6609V32.8904L17.7135 32.9504L36.501 15.2459C37.4463 14.3851 38.692 13.93 39.9696 13.9789C41.2472 14.0278 42.4545 14.5766 43.3313 15.5071C44.2082 16.4376 44.6843 17.6754 44.6572 18.9537C44.6301 20.2319 44.102 21.4484 43.1865 22.3409L20.91 43.3349C20.0292 44.1668 18.8694 44.6397 17.658 44.6609" fill="url(#paint5_radial_1197_237)"/>
<path fill-rule="evenodd" clip-rule="evenodd" d="M17.6565 44.6609V32.8904L17.7135 32.9504L36.501 15.2459C37.4463 14.3851 38.692 13.93 39.9696 13.9789C41.2472 14.0278 42.4545 14.5766 43.3313 15.5071C44.2082 16.4376 44.6843 17.6754 44.6572 18.9537C44.6301 20.2319 44.102 21.4484 43.1865 22.3409L20.91 43.3349C20.0292 44.1668 18.8694 44.6397 17.658 44.6609" fill="url(#paint6_radial_1197_237)"/>
<path fill-rule="evenodd" clip-rule="evenodd" d="M17.6565 44.6609V32.8904L17.7135 32.9504L36.501 15.2459C37.4463 14.3851 38.692 13.93 39.9696 13.9789C41.2472 14.0278 42.4545 14.5766 43.3313 15.5071C44.2082 16.4376 44.6843 17.6754 44.6572 18.9537C44.6301 20.2319 44.102 21.4484 43.1865 22.3409L20.91 43.3349C20.0292 44.1668 18.8694 44.6397 17.658 44.6609" fill="url(#paint7_radial_1197_237)" fill-opacity="0.8"/>
<defs>
<linearGradient id="paint0_linear_1197_237" x1="16.0786" y1="30.5834" x2="8.67761" y2="37.9844" gradientUnits="userSpaceOnUse">
<stop stop-color="#655898"/>
<stop offset="0.199" stop-color="#978CCF"/>
<stop offset="0.291" stop-color="#978CCF"/>
<stop offset="0.362" stop-color="#978CCF"/>
<stop offset="0.523" stop-color="#7966C1"/>
<stop offset="0.818" stop-color="#8842EC"/>
<stop offset="1" stop-color="#6035BE"/>
</linearGradient>
<radialGradient id="paint1_radial_1197_237" cx="0" cy="0" r="1" gradientUnits="userSpaceOnUse" gradientTransform="translate(13.6605 35.1811) rotate(47.198) scale(15.2271)">
<stop offset="0.569" stop-color="#423473" stop-opacity="0"/>
<stop offset="0.863" stop-color="#41366A"/>
</radialGradient>
<radialGradient id="paint2_radial_1197_237" cx="0" cy="0" r="1" gradientUnits="userSpaceOnUse" gradientTransform="translate(18.0121 41.7119) rotate(-90) scale(3.01821 4.06153)">
<stop offset="0.096" stop-color="#9447FE"/>
<stop offset="0.846" stop-color="#9447FE" stop-opacity="0"/>
</radialGradient>
<linearGradient id="paint3_linear_1197_237" x1="23.031" y1="26.9264" x2="31.188" y2="35.5739" gradientUnits="userSpaceOnUse">
<stop stop-color="#473B76"/>
<stop offset="0.266" stop-color="#6C5EA9"/>
<stop offset="0.523" stop-color="#7966C1"/>
<stop offset="0.736" stop-color="#7C50D8"/>
<stop offset="0.895" stop-color="#6035BE"/>
</linearGradient>
<radialGradient id="paint4_radial_1197_237" cx="0" cy="0" r="1" gradientUnits="userSpaceOnUse" gradientTransform="translate(41.9247 16.6058) rotate(-54.105) scale(4.76699)">
<stop offset="0.177" stop-color="#A398D8"/>
<stop offset="1" stop-color="#8A7ACC" stop-opacity="0"/>
</radialGradient>
<radialGradient id="paint5_radial_1197_237" cx="0" cy="0" r="1" gradientUnits="userSpaceOnUse" gradientTransform="translate(17.0175 36.3629) rotate(90) scale(4.54205 3.12266)">
<stop offset="0.366" stop-color="#978CCF"/>
<stop offset="1" stop-color="#7363B5" stop-opacity="0"/>
</radialGradient>
<radialGradient id="paint6_radial_1197_237" cx="0" cy="0" r="1" gradientUnits="userSpaceOnUse" gradientTransform="translate(29.2695 36.3299) rotate(89.424) scale(32.6969 29.0482)">
<stop offset="0.569" stop-color="#423473" stop-opacity="0"/>
<stop offset="0.863" stop-color="#41366A"/>
</radialGradient>
<radialGradient id="paint7_radial_1197_237" cx="0" cy="0" r="1" gradientUnits="userSpaceOnUse" gradientTransform="translate(17.6565 41.5499) rotate(-90) scale(3.26792 4.06379)">
<stop offset="0.096" stop-color="#9447FE"/>
<stop offset="0.846" stop-color="#9447FE" stop-opacity="0"/>
</radialGradient>
</defs>
</svg>
