<svg width="11" height="10" viewBox="0 0 11 10" fill="none" xmlns="http://www.w3.org/2000/svg">
<path d="M1.71996 5.49982C1.5323 5.33105 1.28778 5.23949 1.03543 5.24349C0.783082 5.24748 0.541579 5.34675 0.359365 5.52137C0.17715 5.69599 0.0677025 5.93306 0.0529749 6.18501C0.0382473 6.43695 0.119329 6.68515 0.279957 6.87982L2.49996 9.20982C2.5929 9.30732 2.70459 9.38504 2.82832 9.43831C2.95204 9.49158 3.08525 9.5193 3.21996 9.51982C3.35395 9.5206 3.48673 9.49445 3.61041 9.44291C3.7341 9.39137 3.84616 9.31551 3.93996 9.21982L10.72 2.21982C10.8119 2.12526 10.8843 2.01353 10.933 1.891C10.9818 1.76847 11.0059 1.63753 11.004 1.50567C11.0022 1.37382 10.9744 1.24361 10.9222 1.1225C10.87 1.00139 10.7945 0.891742 10.7 0.799817C10.6054 0.707891 10.4937 0.635489 10.3711 0.586745C10.2486 0.538 10.1177 0.513867 9.98581 0.515725C9.85396 0.517582 9.72375 0.545392 9.60264 0.597568C9.48153 0.649745 9.37188 0.725265 9.27996 0.819817L3.22996 7.07982L1.71996 5.49982Z" fill="#8D8D8D"/>
</svg>
