<svg width="31" height="31" viewBox="0 0 31 31" fill="none" xmlns="http://www.w3.org/2000/svg">
<path d="M25.1226 30.0643H5.07295C3.57725 30.0643 2.36035 28.7717 2.36035 27.1829V12.0234C2.36035 11.4699 2.78275 11.0211 3.30387 11.0211C3.82498 11.0211 4.24738 11.4699 4.24738 12.0234V27.1829C4.24738 27.6665 4.61771 28.0598 5.07295 28.0598H25.1226C25.5779 28.0598 25.9482 27.6665 25.9482 27.1829V12.0234C25.9482 11.4699 26.3706 11.0211 26.8917 11.0211C27.4128 11.0211 27.8352 11.4699 27.8352 12.0234V27.1829C27.8352 28.7717 26.6184 30.0643 25.1226 30.0643Z" fill="#252424"/>
<path d="M29.2489 15.5304C29.0074 15.5304 28.766 15.4326 28.5818 15.2369L16.8475 2.77278C15.8819 1.74703 14.3106 1.74703 13.3449 2.77278L1.61068 15.2369C1.24224 15.6284 0.644818 15.6284 0.276376 15.2369C-0.0921253 14.8456 -0.0921253 14.211 0.276376 13.8196L12.0106 1.35542C13.712 -0.451805 16.4805 -0.451805 18.1818 1.35542L29.916 13.8196C30.2845 14.211 30.2845 14.8455 29.916 15.2369C29.7319 15.4326 29.4904 15.5304 29.2489 15.5304Z" fill="#252424"/>
<rect x="25.9443" y="5.19791" width="1.88703" height="9.20774" rx="0.943514" fill="#252424"/>
</svg>
