<svg width="148" height="65" viewBox="0 0 148 65" fill="none" xmlns="http://www.w3.org/2000/svg">
<path d="M146.199 58.8465C137.244 57.937 129.401 56.6566 120.931 53.8832C116.21 52.3374 111.706 50.8141 107.195 48.6692C98.7557 44.6573 91.649 38.7395 84.4336 32.9271C76.6477 26.6551 73.9331 11.1227 83.0298 4.70152C90.1339 -0.313147 103.258 1.91672 108.047 9.2136C110.839 13.4683 110.256 20.8962 108.297 25.3568C105.078 32.6901 98.2997 37.7135 91.3521 41.1491C85.2244 44.1793 78.1003 45.4829 71.5491 47.3407C67.8599 48.3869 64.1161 49.0288 60.3691 49.8223C56.7409 50.5907 53.0785 51.776 49.4148 52.2789C37.3955 53.9286 25.1192 55.9606 13.5438 59.7489C10.764 60.6586 7.63185 61.9108 4.77029 62.4311C3.98198 62.5744 3.00604 62.7292 2.26357 63.0076C1.0851 63.4496 4.19513 61.3667 4.97082 60.3756C8.43781 55.9455 12.4762 52.2637 16.1508 48.0175C17.6044 46.3377 19.7741 45.0322 20.7631 43.0542" stroke="#6A6BF8" stroke-width="3.4" stroke-linecap="round"/>
</svg>
